<svg width="65" height="21" viewBox="0 0 65 21" xmlns="http://www.w3.org/2000/svg">
     <path style="fill: #ffffff;" d="m 0,0 v 12 h 1 v 1 h 5 v 3 H 0 v 4 h 1 v 1 H 65 V 1 H 64 V 0 H 32 v 4 h 1 v 1 h 11 v 7 h 1 v 1 h 3 v 3 H 27 v -3 h 6 V 9 H 32 V 8 H 21 V 1 H 20 V 0 H 16 V 8 H 5 V 1 H 4 V 0 Z m 11,13 h 11 v 3 H 11 Z"/>
     <path style="fill: #000000;" d="m 1,1 v 10 h 1 v 1 H 16 V 10 H 15 V 9 H 4 V 2 H 3 V 1 Z"/>
     <path style="fill: #000000;" d="m 7,13 v 4 H 1 v 2 h 1 v 1 H 16 V 18 H 15 V 17 H 10 V 14 H 9 v -1 z"/>
     <path style="fill: #000000;" d="m 17,1 v 10 h 1 v 1 H 32 V 10 H 31 V 9 H 20 V 2 H 19 V 1 Z"/>
     <path style="fill: #000000;" d="m 23,13 v 4 h -6 v 2 h 1 v 1 h 14 v -2 h -1 v -1 h -5 v -3 h -1 v -1 z"/>
     <path style="fill: #000000;" d="m 33,1 v 2 h 1 v 1 h 11 v 7 h 1 v 1 h 2 V 2 H 47 V 1 Z"/>
     <path style="fill: #000000;" d="m 33,17 v 2 h 1 v 1 h 14 v -2 h -1 v -1 z"/>
     <path style="fill: #000000;" d="m 49,1 v 2 h 1 v 1 h 3 v 1 h -4 v 6 h 1 v 1 h 6 V 10 H 55 V 9 H 52 V 8 h 4 V 2 H 55 V 1 Z"/>
     <path style="fill: #000000;" d="m 57,1 v 10 h 1 v 1 h 2 V 11 8 h 1 v 3 h 1 v 1 h 2 V 2 H 63 V 1 H 61 V 2 5 H 60 V 2 H 59 V 1 Z"/>
     <path style="fill: #000000;" d="m 49,13 v 6 h 1 v 1 h 14 v -6 h -1 v -1 z m 3,3 h 9 v 1 h -9 z"/>
</svg>